<svg width="239" height="27" viewBox="0 0 239 27" fill="none" xmlns="http://www.w3.org/2000/svg">
<path d="M8.69542 3.75522C4.31197 4.68968 0.895182 8.23537 0.151062 12.6863L6.73522 10.5088L8.69542 3.75522Z" fill="#F3F4F6"/>
<path d="M0.045942 13.5014C0.0155378 13.8346 0 14.1722 0 14.5134C0 18.7107 2.35084 22.359 5.80769 24.2133L5.77175 17.4175L0.045942 13.5014Z" fill="#F3F4F6"/>
<path d="M6.67589 24.6309C8.00322 25.199 9.46489 25.5134 11 25.5134C13.8977 25.5134 16.5338 24.393 18.4985 22.5616L12.0234 20.4803L6.67589 24.6309Z" fill="#F3F4F6"/>
<path d="M19.1533 21.8976C20.9223 19.9455 22 17.3553 22 14.5134C22 12.8161 21.6156 11.2085 20.929 9.77303L16.8501 15.4641L19.1533 21.8976Z" fill="#F3F4F6"/>
<path d="M20.5746 9.09399C18.6843 5.76171 15.1047 3.51343 11 3.51343C10.4668 3.51343 9.94253 3.55135 9.42963 3.62467L13.5818 9.30159L20.5746 9.09399Z" fill="#F3F4F6"/>
<path d="M35.3659 20V11.3604H35.4186L41.1051 20H42.8454V8.00293H40.9733V16.6162H40.9118L35.2428 8.00293H33.485V20H35.3659ZM50.7509 18.8574H50.8213V20H52.6757V13.6719C52.6757 11.5977 51.1377 10.5693 49.0722 10.5693C46.5937 10.5693 45.539 11.8877 45.4599 13.4697H47.288C47.3584 12.6436 47.9648 12.0898 49.0283 12.0898C50.1181 12.0898 50.7509 12.6787 50.7509 13.7422V14.6299H48.3955C46.2597 14.6299 45.1171 15.6758 45.1171 17.3281C45.1171 19.0596 46.3564 20.1406 48.1582 20.1406C49.5293 20.1406 50.3466 19.5693 50.7509 18.8574ZM48.747 18.6553C47.8857 18.6553 47.0771 18.1895 47.0771 17.2227C47.0771 16.4492 47.5957 15.9131 48.7295 15.9131H50.7509V16.9414C50.7509 17.9521 49.8808 18.6553 48.747 18.6553ZM55.8792 10.71H54.5696V12.2744H55.8528V17.3896C55.8528 19.2529 56.4768 20.0615 58.7356 20.0615C59.1311 20.0615 59.5003 20.0264 59.6585 20V18.5059C59.5442 18.5234 59.386 18.5234 59.219 18.5234C58.1731 18.5234 57.7952 18.2422 57.7952 17.2314V12.2744H59.6057V10.71H57.7952V8.45117H55.8792V10.71ZM62.027 20H63.9781V10.71H62.027V20ZM61.8424 8.44238C61.8424 9.08398 62.3697 9.54102 63.0025 9.54102C63.6354 9.54102 64.1539 9.08398 64.1539 8.44238C64.1539 7.80078 63.6354 7.33496 63.0025 7.33496C62.3697 7.33496 61.8424 7.80078 61.8424 8.44238ZM70.4863 10.5518C67.8144 10.5518 66.3466 12.4414 66.3466 14.9639V15.7109C66.3466 18.3301 67.8056 20.1582 70.4863 20.1582C73.1669 20.1582 74.6083 18.3301 74.6083 15.7109V14.9639C74.6083 12.4326 73.1581 10.5518 70.4863 10.5518ZM70.4863 12.1162C71.9364 12.1162 72.6484 13.2939 72.6484 14.9902V15.7021C72.6484 17.3721 71.9452 18.585 70.4863 18.585C69.0273 18.585 68.3154 17.3633 68.3154 15.7021V14.9902C68.3154 13.3027 69.0361 12.1162 70.4863 12.1162ZM76.9065 20H78.8489V14.4629C78.8489 13.2412 79.5168 12.2656 80.8879 12.2656C82.0481 12.2656 82.9094 12.9336 82.9094 14.4277V20H84.8518V14.0322C84.8518 11.7646 83.4895 10.5693 81.5911 10.5693C80.0618 10.5693 79.2092 11.3955 78.8928 12.0107H78.8225V10.71H76.9065V20ZM92.5201 18.8574H92.5904V20H94.4449V13.6719C94.4449 11.5977 92.9068 10.5693 90.8414 10.5693C88.3629 10.5693 87.3082 11.8877 87.2291 13.4697H89.0572C89.1275 12.6436 89.7339 12.0898 90.7974 12.0898C91.8873 12.0898 92.5201 12.6787 92.5201 13.7422V14.6299H90.1646C88.0289 14.6299 86.8863 15.6758 86.8863 17.3281C86.8863 19.0596 88.1255 20.1406 89.9273 20.1406C91.2984 20.1406 92.1158 19.5693 92.5201 18.8574ZM90.5162 18.6553C89.6548 18.6553 88.8463 18.1895 88.8463 17.2227C88.8463 16.4492 89.3648 15.9131 90.4986 15.9131H92.5201V16.9414C92.5201 17.9521 91.65 18.6553 90.5162 18.6553ZM97.0858 20H99.037V7.37012H97.0858V20ZM103.401 13.2939C103.401 10.8506 104.438 9.48828 106.275 9.48828C107.839 9.48828 108.876 10.5342 108.903 12.0371H110.845V11.9053C110.845 9.4707 108.92 7.76562 106.266 7.76562C103.172 7.76562 101.388 9.84863 101.388 13.2939V14.7617C101.388 18.1807 103.172 20.2373 106.266 20.2373C108.911 20.2373 110.845 18.585 110.845 16.2646V16.1328H108.903C108.876 17.5391 107.839 18.5234 106.275 18.5234C104.438 18.5234 103.401 17.1787 103.401 14.7705V13.2939ZM116.826 10.5518C114.154 10.5518 112.686 12.4414 112.686 14.9639V15.7109C112.686 18.3301 114.145 20.1582 116.826 20.1582C119.506 20.1582 120.948 18.3301 120.948 15.7109V14.9639C120.948 12.4326 119.498 10.5518 116.826 10.5518ZM116.826 12.1162C118.276 12.1162 118.988 13.2939 118.988 14.9902V15.7021C118.988 17.3721 118.285 18.585 116.826 18.585C115.367 18.585 114.655 17.3633 114.655 15.7021V14.9902C114.655 13.3027 115.376 12.1162 116.826 12.1162ZM123.246 20H125.188V14.4629C125.188 13.2412 125.856 12.2656 127.227 12.2656C128.388 12.2656 129.249 12.9336 129.249 14.4277V20H131.191V14.0322C131.191 11.7646 129.829 10.5693 127.931 10.5693C126.401 10.5693 125.549 11.3955 125.232 12.0107H125.162V10.71H123.246V20ZM133.384 13.4258C133.384 15.1221 134.764 15.7021 136.46 16.0625C137.699 16.3086 138.78 16.4668 138.78 17.4336C138.78 18.1191 138.209 18.708 136.97 18.708C135.871 18.708 135.212 18.1982 135.107 17.4424H133.208C133.208 19.1035 134.614 20.1582 136.847 20.1582C139.185 20.1582 140.679 19.0684 140.679 17.1875C140.679 15.4297 139.325 14.8936 137.603 14.5859C136.548 14.3926 135.256 14.208 135.256 13.2324C135.256 12.4502 135.933 12.002 136.926 12.002C138.192 12.002 138.596 12.7227 138.657 13.373H140.415C140.415 11.7295 139.176 10.5518 136.979 10.5518C135.098 10.5518 133.384 11.4131 133.384 13.4258ZM150.606 10.71H148.655V16.3262C148.655 17.7061 147.793 18.4531 146.624 18.4531C145.579 18.4531 144.647 17.9785 144.647 16.3525V10.71H142.696V16.8887C142.696 19.042 144.014 20.1406 145.921 20.1406C147.433 20.1406 148.294 19.4375 148.602 18.708H148.69V20H150.606V10.71ZM153.264 20H155.207V14.252C155.207 12.9072 156.015 12.2393 157.026 12.2393C158.107 12.2393 158.828 12.8896 158.828 14.2695V20H160.726V14.2695C160.726 13.0391 161.403 12.2393 162.563 12.2393C163.697 12.2393 164.347 12.9775 164.347 14.1553V20H166.299V13.6631C166.299 11.791 165.165 10.5693 163.222 10.5693C161.684 10.5693 160.718 11.3252 160.392 12.1162H160.313C159.971 11.1758 159.109 10.5693 157.677 10.5693C156.358 10.5693 155.55 11.2988 155.277 11.958H155.18V10.71H153.264V20ZM172.605 20.1582C174.899 20.1582 176.111 18.8311 176.393 17.3281H174.538C174.301 18.1279 173.624 18.6201 172.631 18.6201C171.304 18.6201 170.46 17.583 170.46 16.0186V15.7988H176.498V14.9111C176.498 12.292 175.004 10.5518 172.526 10.5518C170.082 10.5518 168.535 12.2305 168.535 14.8232V15.7637C168.535 18.5146 170.117 20.1582 172.605 20.1582ZM170.46 14.4365V14.4189C170.46 13.1006 171.277 12.0635 172.534 12.0635C173.774 12.0635 174.591 13.1006 174.591 14.4189V14.4365H170.46ZM178.761 20H180.739V14.498C180.739 13.25 181.266 12.2832 182.831 12.2832C183.156 12.2832 183.498 12.3096 183.665 12.3535V10.6309C183.481 10.5957 183.261 10.5781 183.006 10.5781C181.714 10.5781 181.02 11.3516 180.783 11.9316H180.712V10.71H178.761V20ZM187.3 13.2939C187.3 10.8506 188.337 9.48828 190.174 9.48828C191.738 9.48828 192.775 10.5342 192.802 12.0371H194.744V11.9053C194.744 9.4707 192.819 7.76562 190.165 7.76562C187.071 7.76562 185.287 9.84863 185.287 13.2939V14.7617C185.287 18.1807 187.071 20.2373 190.165 20.2373C192.81 20.2373 194.744 18.585 194.744 16.2646V16.1328H192.802C192.775 17.5391 191.738 18.5234 190.174 18.5234C188.337 18.5234 187.3 17.1787 187.3 14.7705V13.2939ZM200.654 20.1582C202.948 20.1582 204.161 18.8311 204.442 17.3281H202.588C202.351 18.1279 201.674 18.6201 200.681 18.6201C199.354 18.6201 198.51 17.583 198.51 16.0186V15.7988H204.548V14.9111C204.548 12.292 203.054 10.5518 200.575 10.5518C198.132 10.5518 196.585 12.2305 196.585 14.8232V15.7637C196.585 18.5146 198.167 20.1582 200.654 20.1582ZM198.51 14.4365V14.4189C198.51 13.1006 199.327 12.0635 200.584 12.0635C201.823 12.0635 202.641 13.1006 202.641 14.4189V14.4365H198.51ZM206.811 20H208.753V14.4629C208.753 13.2412 209.421 12.2656 210.792 12.2656C211.953 12.2656 212.814 12.9336 212.814 14.4277V20H214.756V14.0322C214.756 11.7646 213.394 10.5693 211.496 10.5693C209.966 10.5693 209.114 11.3955 208.797 12.0107H208.727V10.71H206.811V20ZM217.916 10.71H216.606V12.2744H217.889V17.3896C217.889 19.2529 218.513 20.0615 220.772 20.0615C221.168 20.0615 221.537 20.0264 221.695 20V18.5059C221.581 18.5234 221.423 18.5234 221.256 18.5234C220.21 18.5234 219.832 18.2422 219.832 17.2314V12.2744H221.642V10.71H219.832V8.45117H217.916V10.71ZM227.491 20.1582C229.785 20.1582 230.998 18.8311 231.279 17.3281H229.425C229.188 18.1279 228.511 18.6201 227.518 18.6201C226.19 18.6201 225.347 17.583 225.347 16.0186V15.7988H231.385V14.9111C231.385 12.292 229.891 10.5518 227.412 10.5518C224.969 10.5518 223.422 12.2305 223.422 14.8232V15.7637C223.422 18.5146 225.004 20.1582 227.491 20.1582ZM225.347 14.4365V14.4189C225.347 13.1006 226.164 12.0635 227.421 12.0635C228.66 12.0635 229.478 13.1006 229.478 14.4189V14.4365H225.347ZM233.648 20H235.625V14.498C235.625 13.25 236.153 12.2832 237.717 12.2832C238.042 12.2832 238.385 12.3096 238.552 12.3535V10.6309C238.368 10.5957 238.148 10.5781 237.893 10.5781C236.601 10.5781 235.907 11.3516 235.669 11.9316H235.599V10.71H233.648V20Z" fill="white"/>
</svg>
